<?xml version="1.0" encoding="UTF-8"?>
<svg version="1.1" xmlns="http://www.w3.org/2000/svg" width="135" height="130">
<path d="M0 0 C2.00924355 1.68259904 3.7887214 3.43207203 5.56640625 5.35546875 C6.10652344 5.88914062 6.64664063 6.4228125 7.203125 6.97265625 C15.05864655 15.24370917 17.39639933 24.71751157 17.19140625 35.85546875 C17.21074219 36.90605469 17.23007813 37.95664062 17.25 39.0390625 C17.18608337 49.38077277 13.70020296 57.97251258 6.578125 65.51171875 C0.32351399 71.2441001 -8.56814787 78.35546875 -17.43359375 78.35546875 C-18.0801693 81.7099795 -18.57391252 84.93384947 -18.43359375 88.35546875 C-16.22871116 90.81963009 -16.22871116 90.81963009 -13.43359375 92.35546875 C-12.96953125 93.37640625 -12.96953125 93.37640625 -12.49609375 94.41796875 C-11.49420407 96.68091983 -11.49420407 96.68091983 -8.43359375 97.85546875 C-5.08375477 99.53038824 -4.90030727 100.12869901 -3.43359375 103.35546875 C-0.89916969 105.58363861 -0.89916969 105.58363861 1.56640625 107.35546875 C0.96813648 110.96547213 0.69072379 111.26420765 -2.50390625 113.609375 C-3.8474218 114.3928707 -5.19945459 115.16189978 -6.55859375 115.91796875 C-7.50798828 116.49708008 -7.50798828 116.49708008 -8.4765625 117.08789062 C-22.70848105 125.13619139 -39.99031971 123.91431421 -55.78393555 123.91137695 C-59.72738849 123.91793763 -63.66831846 123.97255762 -67.61132812 124.02929688 C-86.78696444 124.15713647 -102.00058362 121.56275698 -118.43359375 111.35546875 C-118.43359375 107.35546875 -118.43359375 107.35546875 -116.55859375 105.41796875 C-115.85734375 104.73734375 -115.15609375 104.05671875 -114.43359375 103.35546875 C-113.72111643 101.70786495 -113.05958992 100.03783346 -112.43359375 98.35546875 C-109.43086524 91.84250831 -109.43086524 91.84250831 -105.74609375 90.04296875 C-104.98296875 89.81609375 -104.21984375 89.58921875 -103.43359375 89.35546875 C-102.93859375 88.36546875 -102.93859375 88.36546875 -102.43359375 87.35546875 C-101.77359375 87.35546875 -101.11359375 87.35546875 -100.43359375 87.35546875 C-101.42359375 77.12546875 -102.41359375 66.89546875 -103.43359375 56.35546875 C-107.88859375 57.34546875 -107.88859375 57.34546875 -112.43359375 58.35546875 C-115.49609375 58.48046875 -115.49609375 58.48046875 -117.43359375 58.35546875 C-117.0068984 52.23950211 -114.89883694 47.09306982 -112.58984375 41.44140625 C-110.37696552 35.53541367 -110.20746651 30.03889784 -110.18359375 23.79296875 C-110.179646 22.90488525 -110.17569824 22.01680176 -110.17163086 21.10180664 C-110.22593019 14.94806854 -110.97435422 9.45809076 -112.875 3.5703125 C-113.43359375 1.35546875 -113.43359375 1.35546875 -112.43359375 -1.64453125 C-111.42820557 -1.50015625 -110.42281738 -1.35578125 -109.38696289 -1.20703125 C-97.21855184 0.52433533 -85.19929185 1.83602431 -72.9128418 2.26318359 C-71.28855716 2.325208 -69.6647539 2.40128217 -68.04174805 2.49072266 C-55.80249844 3.35369561 -55.80249844 3.35369561 -45.20678711 -2.14892578 C-33.81113717 -11.76062226 -11.22757352 -7.58717248 0 0 Z " fill="#318133" transform="translate(118.43359375,6.64453125)"/>
<path d="M0 0 C5.52018751 3.33948533 9.21546214 7.18508665 12.55078125 12.6796875 C13.03804688 13.43507813 13.5253125 14.19046875 14.02734375 14.96875 C19.21574426 24.3310593 19.06736159 35.86662352 16.78125 46.13671875 C13.21406717 56.52560581 6.41071316 65.38932293 -3.38671875 70.5546875 C-14.02999277 75.32081323 -25.81173477 76.38231341 -36.9375 72.4453125 C-47.51213416 67.33577569 -56.11181907 59.88459036 -60.625 48.7890625 C-63.71214943 37.84504461 -63.99643603 26.87091705 -59.05078125 16.49609375 C-53.42158274 6.59694222 -46.23414849 -0.03897012 -35.6875 -4.484375 C-23.58128559 -7.60950152 -10.86417745 -5.85660602 0 0 Z " fill="#FD0B0B" transform="translate(115.44921875,8.3203125)"/>
<path d="M0 0 C3.04101363 2.05500279 5.51388114 4.31010091 8 7 C8.54011719 7.53367187 9.08023438 8.06734375 9.63671875 8.6171875 C17.4922403 16.88824042 19.82999308 26.36204282 19.625 37.5 C19.64433594 38.55058594 19.66367188 39.60117187 19.68359375 40.68359375 C19.61967712 51.02530402 16.13379671 59.61704383 9.01171875 67.15625 C2.75710774 72.88863135 -6.13455412 80 -15 80 C-15.64657555 83.35451075 -16.14031877 86.57838072 -16 90 C-13.79511741 92.46416134 -13.79511741 92.46416134 -11 94 C-10.5359375 95.0209375 -10.5359375 95.0209375 -10.0625 96.0625 C-9.06061032 98.32545108 -9.06061032 98.32545108 -6 99.5 C-2.65016102 101.17491949 -2.46671352 101.77323026 -1 105 C1.53442406 107.22816986 1.53442406 107.22816986 4 109 C3.40173023 112.61000338 3.12431754 112.9087389 -0.0703125 115.25390625 C-1.41382805 116.03740195 -2.76586084 116.80643103 -4.125 117.5625 C-5.07439453 118.14161133 -5.07439453 118.14161133 -6.04296875 118.73242188 C-20.2748873 126.78072264 -37.55672596 125.55884546 -53.3503418 125.5559082 C-57.29379474 125.56246888 -61.23472471 125.61708887 -65.17773438 125.67382812 C-84.35337069 125.80166772 -99.56698987 123.20728823 -116 113 C-116 109 -116 109 -114.125 107.0625 C-113.42375 106.381875 -112.7225 105.70125 -112 105 C-111.28752268 103.3523962 -110.62599617 101.68236471 -110 100 C-106.99727149 93.48703956 -106.99727149 93.48703956 -103.3125 91.6875 C-102.549375 91.460625 -101.78625 91.23375 -101 91 C-100.505 90.01 -100.505 90.01 -100 89 C-99.01 89 -98.02 89 -97 89 C-97 92.3 -97 95.6 -97 99 C-97.66 99 -98.32 99 -99 99 C-99.31642465 100.499177 -99.62788849 101.99940113 -99.9375 103.5 C-100.11152344 104.3353125 -100.28554687 105.170625 -100.46484375 106.03125 C-101.12202869 109.67694749 -101.56374993 113.32135074 -102 117 C-97.56185484 116.19099794 -93.12460187 115.37720308 -88.6875 114.5625 C-87.42486328 114.33240234 -86.16222656 114.10230469 -84.86132812 113.86523438 C-83.04858398 113.53168945 -83.04858398 113.53168945 -81.19921875 113.19140625 C-79.52605591 112.88505249 -79.52605591 112.88505249 -77.8190918 112.57250977 C-74.9383335 112.04671915 -74.9383335 112.04671915 -72 111 C-57.6236752 110.09217825 -45.77980429 111.98363686 -33 119 C-32.72293213 118.41879395 -32.44586426 117.83758789 -32.16040039 117.23876953 C-31.04519877 115.08720234 -29.81874361 113.16579786 -28.43359375 111.1796875 C-27.94826172 110.47972656 -27.46292969 109.77976562 -26.96289062 109.05859375 C-26.45951172 108.33800781 -25.95613281 107.61742188 -25.4375 106.875 C-24.43507097 105.43568005 -23.43371693 103.99561064 -22.43359375 102.5546875 C-21.99072021 101.92030762 -21.54784668 101.28592773 -21.09155273 100.63232422 C-19.9392 98.98293124 -19.9392 98.98293124 -19 97 C-20.03125 97.474375 -21.0625 97.94875 -22.125 98.4375 C-29.70701739 101.925228 -38.22404334 101.19615282 -46.375 101.1875 C-47.06609863 101.1882251 -47.75719727 101.1889502 -48.46923828 101.18969727 C-64.35906296 101.18787462 -80.16047675 100.19687716 -96 99 C-95.125 93.125 -95.125 93.125 -94 92 C-93.92851801 90.64756083 -93.91600546 89.29165633 -93.9375 87.9375 C-93.958125 86.638125 -93.97875 85.33875 -94 84 C-93.67 84 -93.34 84 -93 84 C-92.67 87.63 -92.34 91.26 -92 95 C-90.30875 94.95875 -88.6175 94.9175 -86.875 94.875 C-80 95 -80 95 -66 97 C-66 85.45 -66 73.9 -66 62 C-63.69 62 -61.38 62 -59 62 C-59 62.33 -59 62.66 -59 63 C-60.65 63 -62.3 63 -64 63 C-63.89171875 64.29357422 -63.89171875 64.29357422 -63.78125 65.61328125 C-62.98471489 76.08993058 -62.89824352 86.49646966 -63 97 C-60.36 96.67 -57.72 96.34 -55 96 C-51.59412302 87.59883679 -51.10531738 76.97715444 -52 68 C-52.66 67.01 -53.32 66.02 -54 65 C-50.21616093 66.78515207 -46.92814312 69.06659971 -43.51171875 71.46484375 C-33.87810137 77.35288672 -22.48743984 78.3045703 -11.5625 75.9375 C-5.95644889 74.25872318 -1.51990227 71.68385098 3 68 C3.63808594 67.48566406 4.27617188 66.97132812 4.93359375 66.44140625 C11.81500667 60.27033273 15.81619947 51.14933965 16.34375 41.9453125 C16.92674424 28.36381079 14.40120724 18.36720284 5 8 C2.24294879 5.99459316 2.24294879 5.99459316 -0.8125 4.3125 C-1.80894531 3.73113281 -2.80539063 3.14976563 -3.83203125 2.55078125 C-10.30914745 -0.61989092 -16.2210592 -1.38632253 -23.3125 -1.375 C-24.1475708 -1.37628906 -24.9826416 -1.37757812 -25.84301758 -1.37890625 C-32.18372434 -1.27029658 -37.43761326 -0.20301961 -43 3 C-42.70703125 1.10546875 -42.70703125 1.10546875 -42 -1 C-28.77827194 -7.73559731 -13.0273736 -6.67337719 0 0 Z " fill="#41A843" transform="translate(116,5)"/>
<path d="M0 0 C2.10551443 3.15827164 3.88229719 6.40889542 5.68359375 9.74609375 C6.96391153 12.04716034 6.96391153 12.04716034 8.66015625 14.16015625 C10 16 10 16 10 18 C10.33 18.33 10.66 18.66 11 19 C11.73286763 27.62397723 11.89579907 40.65630139 7 48 C5.0546875 48.29296875 5.0546875 48.29296875 2.875 48.1875 C1.59625 48.125625 0.3175 48.06375 -1 48 C-1.68416471 36.65019611 -2.15298709 25.37204047 -2 14 C-2.66 13.67 -3.32 13.34 -4 13 C-4 24.55 -4 36.1 -4 48 C-12.67356791 47.38045944 -21.33752653 46.74567079 -30 46 C-30.08564209 45.43490723 -30.17128418 44.86981445 -30.25952148 44.28759766 C-30.64869818 41.73285367 -31.04303485 39.17893253 -31.4375 36.625 C-31.63956055 35.29082031 -31.63956055 35.29082031 -31.84570312 33.9296875 C-31.97783203 33.07890625 -32.10996094 32.228125 -32.24609375 31.3515625 C-32.36654053 30.56604004 -32.4869873 29.78051758 -32.61108398 28.97119141 C-32.92238238 26.93388316 -32.92238238 26.93388316 -34 25 C-34.08342159 23.55151418 -34.10732861 22.09929131 -34.09765625 20.6484375 C-34.09443359 19.79765625 -34.09121094 18.946875 -34.08789062 18.0703125 C-34.07951172 17.18085937 -34.07113281 16.29140625 -34.0625 15.375 C-34.05798828 14.4778125 -34.05347656 13.580625 -34.04882812 12.65625 C-34.03702591 10.43743352 -34.02056155 8.21874982 -34 6 C-32.14703165 5.51622009 -30.29255559 5.03821364 -28.4375 4.5625 C-27.40496094 4.29566406 -26.37242188 4.02882813 -25.30859375 3.75390625 C-19.16720112 2.35450982 -13.35777496 1.8817896 -7.0625 1.9375 C-6.03672852 1.94426758 -6.03672852 1.94426758 -4.99023438 1.95117188 C-3.32678396 1.9628044 -1.6633795 1.98073306 0 2 C0 1.34 0 0.68 0 0 Z " fill="#A3A3BE" transform="translate(54,54)"/>
<path d="M0 0 C1.01191406 0.13277344 2.02382812 0.26554688 3.06640625 0.40234375 C18.6663899 2.30491236 34.30467941 2.62949344 50 3 C49.44570313 3.92941406 48.89140625 4.85882813 48.3203125 5.81640625 C47.58813369 7.06486499 46.85638579 8.31357652 46.125 9.5625 C45.76019531 10.17158203 45.39539062 10.78066406 45.01953125 11.40820312 C40.90478603 18.47808355 39.69470915 24.84521463 39.875 32.9375 C39.88402344 33.71673828 39.89304688 34.49597656 39.90234375 35.29882812 C39.92566309 37.19935447 39.96152414 39.09972008 40 41 C39.34104736 41.07516846 38.68209473 41.15033691 38.00317383 41.2277832 C18.80937992 42.9620871 18.80937992 42.9620871 0.35546875 48.08984375 C-2 49 -2 49 -5 49 C-2.26821192 40.64072848 -2.26821192 40.64072848 -0.875 37.3125 C1.34508494 31.44513267 1.15268628 25.36615406 1.125 19.1875 C1.12886719 18.33607422 1.13273438 17.48464844 1.13671875 16.60742188 C1.12817269 10.99693186 0.70907896 5.56570704 0 0 Z " fill="#FAE9A9" transform="translate(12,11)"/>
<path d="M0 0 C3.04101363 2.05500279 5.51388114 4.31010091 8 7 C8.54011719 7.53367187 9.08023438 8.06734375 9.63671875 8.6171875 C17.4922403 16.88824042 19.82999308 26.36204282 19.625 37.5 C19.64433594 38.55058594 19.66367188 39.60117187 19.68359375 40.68359375 C19.61967712 51.02530402 16.13379671 59.61704383 9.01171875 67.15625 C2.75710774 72.88863135 -6.13455412 80 -15 80 C-15.185625 81.78857422 -15.185625 81.78857422 -15.375 83.61328125 C-15.58138686 85.17994515 -15.78982808 86.74633938 -16 88.3125 C-16.07605469 89.09818359 -16.15210937 89.88386719 -16.23046875 90.69335938 C-16.56993041 93.03963852 -16.93897097 94.87624881 -18 97 C-25.80458982 102.40714542 -37.38305675 101.19704559 -46.375 101.1875 C-47.06609863 101.1882251 -47.75719727 101.1889502 -48.46923828 101.18969727 C-64.35906296 101.18787462 -80.16047675 100.19687716 -96 99 C-95.125 93.125 -95.125 93.125 -94 92 C-93.92851801 90.64756083 -93.91600546 89.29165633 -93.9375 87.9375 C-93.958125 86.638125 -93.97875 85.33875 -94 84 C-93.67 84 -93.34 84 -93 84 C-92.67 87.63 -92.34 91.26 -92 95 C-90.30875 94.95875 -88.6175 94.9175 -86.875 94.875 C-80 95 -80 95 -66 97 C-66 85.45 -66 73.9 -66 62 C-63.69 62 -61.38 62 -59 62 C-59 62.33 -59 62.66 -59 63 C-60.65 63 -62.3 63 -64 63 C-63.89171875 64.29357422 -63.89171875 64.29357422 -63.78125 65.61328125 C-62.98471489 76.08993058 -62.89824352 86.49646966 -63 97 C-60.36 96.67 -57.72 96.34 -55 96 C-51.59412302 87.59883679 -51.10531738 76.97715444 -52 68 C-52.66 67.01 -53.32 66.02 -54 65 C-50.21616093 66.78515207 -46.92814312 69.06659971 -43.51171875 71.46484375 C-33.87810137 77.35288672 -22.48743984 78.3045703 -11.5625 75.9375 C-5.95644889 74.25872318 -1.51990227 71.68385098 3 68 C3.63808594 67.48566406 4.27617188 66.97132812 4.93359375 66.44140625 C11.81500667 60.27033273 15.81619947 51.14933965 16.34375 41.9453125 C16.92674424 28.36381079 14.40120724 18.36720284 5 8 C2.24294879 5.99459316 2.24294879 5.99459316 -0.8125 4.3125 C-1.80894531 3.73113281 -2.80539063 3.14976563 -3.83203125 2.55078125 C-10.30914745 -0.61989092 -16.2210592 -1.38632253 -23.3125 -1.375 C-24.1475708 -1.37628906 -24.9826416 -1.37757812 -25.84301758 -1.37890625 C-32.18372434 -1.27029658 -37.43761326 -0.20301961 -43 3 C-42.70703125 1.10546875 -42.70703125 1.10546875 -42 -1 C-28.77827194 -7.73559731 -13.0273736 -6.67337719 0 0 Z " fill="#0E100E" transform="translate(116,5)"/>
<path d="M0 0 C1.00562988 0.14421387 2.01125977 0.28842773 3.04736328 0.43701172 C5.00391846 0.71569092 5.00391846 0.71569092 7 1 C8.15870605 1.1664502 9.31741211 1.33290039 10.51123047 1.50439453 C20.23135348 2.81593056 29.88261633 3.50906467 39.68554688 3.79785156 C42.15874285 3.87606713 44.62954857 3.9848764 47.1015625 4.09375 C48.6952534 4.14509749 50.28900356 4.19464482 51.8828125 4.2421875 C52.61098175 4.27843231 53.339151 4.31467712 54.08938599 4.35202026 C59.44205136 4.45980466 61.95483279 3.2210783 66 0 C66.495 1.485 66.495 1.485 67 3 C66.12988281 3.60134766 66.12988281 3.60134766 65.2421875 4.21484375 C56.40568221 10.64536987 51.06423996 18.48155733 48 29 C47.5658503 32.89806064 47.61408322 36.70955116 47.75 40.625 C47.76804688 41.62917969 47.78609375 42.63335937 47.8046875 43.66796875 C47.85126003 46.11302652 47.91662972 48.55596812 48 51 C47.37544922 51.0501123 46.75089844 51.10022461 46.10742188 51.15185547 C43.23767462 51.38604469 40.36888231 51.63045151 37.5 51.875 C36.51773438 51.95363281 35.53546875 52.03226563 34.5234375 52.11328125 C28.79898444 52.60940051 23.5496454 53.53892079 18 55 C16.68 55 15.36 55 14 55 C14.13857841 58.12536637 14.28709569 61.25018217 14.4375 64.375 C14.47681641 65.26445313 14.51613281 66.15390625 14.55664062 67.0703125 C14.59853516 67.92109375 14.64042969 68.771875 14.68359375 69.6484375 C14.72025146 70.43395996 14.75690918 71.21948242 14.79467773 72.02880859 C14.890891 74.07523496 14.890891 74.07523496 16 76 C16.15004973 77.3734635 16.24838006 78.7528526 16.31640625 80.1328125 C16.35830078 80.93847656 16.40019531 81.74414062 16.44335938 82.57421875 C16.48267578 83.41597656 16.52199219 84.25773437 16.5625 85.125 C16.60568359 85.97449219 16.64886719 86.82398437 16.69335938 87.69921875 C16.79954236 89.79928223 16.90028497 91.89961948 17 94 C15.515 94.495 15.515 94.495 14 95 C12.32692179 90.5122848 11.58150622 86.39656837 11.1484375 81.6328125 C11.05280014 80.61343094 11.05280014 80.61343094 10.95523071 79.57345581 C10.75514943 77.42452283 10.5649197 75.2748524 10.375 73.125 C10.24023604 71.65879403 10.1048257 70.19264731 9.96875 68.7265625 C9.63835827 65.15169611 9.3167893 61.57610044 9 58 C8.38584229 58.1429248 7.77168457 58.28584961 7.13891602 58.43310547 C6.33123779 58.61760254 5.52355957 58.80209961 4.69140625 58.9921875 C3.89162354 59.1763623 3.09184082 59.36053711 2.26782227 59.55029297 C-0.19831083 60.03932485 -2.49129252 60.1618521 -5 60 C-4.57330465 53.88403336 -2.46524319 48.73760107 -0.15625 43.0859375 C2.05662823 37.17994492 2.22612724 31.68342909 2.25 25.4375 C2.25394775 24.5494165 2.25789551 23.66133301 2.26196289 22.74633789 C2.20766356 16.59259979 1.45923953 11.10262201 -0.44140625 5.21484375 C-1 3 -1 3 0 0 Z M6 6 C6.16113281 7.27746094 6.32226562 8.55492187 6.48828125 9.87109375 C7.04913947 14.94462711 7.18359716 19.96149129 7.1875 25.0625 C7.19974609 25.90876953 7.21199219 26.75503906 7.22460938 27.62695312 C7.24194827 35.12313361 5.82828483 41.44024971 2.875 48.375 C1.43458557 51.58573828 1.43458557 51.58573828 1 55 C6.3086849 54.41825155 6.3086849 54.41825155 11 52 C12.95793254 51.579365 14.9351426 51.24561782 16.91796875 50.96484375 C18.09037109 50.79533203 19.26277344 50.62582031 20.47070312 50.45117188 C21.69724609 50.28166016 22.92378906 50.11214844 24.1875 49.9375 C25.39470703 49.76412109 26.60191406 49.59074219 27.84570312 49.41210938 C33.89032604 48.54953607 39.93822907 47.73224381 46 47 C45.95359375 45.90042969 45.9071875 44.80085938 45.859375 43.66796875 C45.51415836 32.04260082 47.00660687 23.77134022 53.1484375 13.68359375 C53.68388184 12.8011499 54.21932617 11.91870605 54.77099609 11.00952148 C55.17656738 10.34637939 55.58213867 9.6832373 56 9 C55.16041748 8.98018066 54.32083496 8.96036133 53.45581055 8.93994141 C37.5613108 8.5463571 21.78346825 8.07095188 6 6 Z " fill="#070602" transform="translate(6,5)"/>
<path d="M0 0 C9.13411761 5.17025525 17.02223552 10.36690307 20.3125 20.875 C20.57979506 23.67737771 20.74014288 26.32342076 20.75 29.125 C20.75580078 30.2540979 20.75580078 30.2540979 20.76171875 31.40600586 C20.63458325 37.54095579 19.19130769 42.01263751 15.3125 46.875 C11.3125 46.875 11.3125 46.875 9.390625 45.37109375 C6.38981168 41.99197276 4.48228379 39.84276759 3.6875 35.3125 C4.38272302 31.48877338 5.70745626 28.40609624 7.3125 24.875 C7.71014263 22.88678687 8.06705166 20.88767638 8.3125 18.875 C5.2379644 19.6513932 5.2379644 19.6513932 3.3125 21.875 C2.8175 16.925 2.8175 16.925 2.3125 11.875 C1.6525 11.875 0.9925 11.875 0.3125 11.875 C-0.3475 15.835 -1.0075 19.795 -1.6875 23.875 C-2.0175 23.875 -2.3475 23.875 -2.6875 23.875 C-2.6875 18.595 -2.6875 13.315 -2.6875 7.875 C-3.6775 8.205 -4.6675 8.535 -5.6875 8.875 C-6.0175 9.865 -6.3475 10.855 -6.6875 11.875 C-7.3475 11.875 -8.0075 11.875 -8.6875 11.875 C-8.6875 11.215 -8.6875 10.555 -8.6875 9.875 C-9.6775 10.205 -10.6675 10.535 -11.6875 10.875 C-12.0175 14.505 -12.3475 18.135 -12.6875 21.875 C-18.30969846 17.20977149 -23.84760796 12.36240595 -28.6875 6.875 C-28.6875 6.215 -28.6875 5.555 -28.6875 4.875 C-27.0845947 4.06001438 -25.48012722 3.24810073 -23.875 2.4375 C-22.98167969 1.98503906 -22.08835937 1.53257813 -21.16796875 1.06640625 C-14.49717553 -2.13767553 -7.02808922 -2.14416281 0 0 Z " fill="#F9EFEF" transform="translate(102.6875,13.125)"/>
<path d="M0 0 C0.33 0 0.66 0 1 0 C1.33 4.29 1.66 8.58 2 13 C3.32 13 4.64 13 6 13 C6 16.3 6 19.6 6 23 C7.66489182 19.07561214 8.87204037 15.10899581 10 11 C11.98 10.67 13.96 10.34 16 10 C15.9278125 10.67546875 15.855625 11.3509375 15.78125 12.046875 C15.64203125 13.38492188 15.64203125 13.38492188 15.5 14.75 C15.36078125 16.07257812 15.36078125 16.07257812 15.21875 17.421875 C14.94363687 20.23304835 14.94363687 20.23304835 15 24 C15.23074219 22.94039062 15.46148438 21.88078125 15.69921875 20.7890625 C16.02752947 19.40077719 16.35701825 18.0127701 16.6875 16.625 C16.83638672 15.92632812 16.98527344 15.22765625 17.13867188 14.5078125 C18.39814796 9.37112573 18.39814796 9.37112573 21.39453125 7.5234375 C24 7 24 7 28 7 C27.63419196 14.45491562 26.79080349 21.04931961 24 28 C24.66 28 25.32 28 26 28 C28.40656211 20.74822618 29.89644911 13.55607786 31 6 C33.64 6 36.28 6 39 6 C38.83628906 6.97066406 38.67257813 7.94132812 38.50390625 8.94140625 C37.88371159 13.28276888 37.88873583 17.55997771 37.9375 21.9375 C37.94201172 22.71673828 37.94652344 23.49597656 37.95117188 24.29882812 C37.96283092 26.19925268 37.98076123 28.09963706 38 30 C37.34104736 30.07516846 36.68209473 30.15033691 36.00317383 30.2277832 C16.80937992 31.9620871 16.80937992 31.9620871 -1.64453125 37.08984375 C-4 38 -4 38 -7 38 C-4.26821192 29.64072848 -4.26821192 29.64072848 -2.875 26.3125 C-0.74056178 20.6714847 -0.72743406 14.58528379 -0.4375 8.625 C-0.37272461 7.37783203 -0.37272461 7.37783203 -0.30664062 6.10546875 C-0.20138195 4.07046772 -0.10026928 2.03525297 0 0 Z " fill="#FBC705" transform="translate(14,22)"/>
<path d="M0 0 C0.66 0 1.32 0 2 0 C3.33589978 11.30743746 3.09861278 22.63373899 3 34 C-5.67254919 33.39702691 -14.33850205 32.74558682 -23 32 C-24.22899346 25.93184478 -25.27560214 20.20104812 -25 14 C-16.65667456 12.80809637 -8.40676978 12.90716451 0 13 C0 8.71 0 4.42 0 0 Z " fill="#F6F6F6" transform="translate(47,68)"/>
<path d="M0 0 C0.66 0 1.32 0 2 0 C2 1.98 2 3.96 2 6 C3.19882813 5.96519531 3.19882813 5.96519531 4.421875 5.9296875 C12.21841292 5.80157537 19.34382002 6.52410988 27 8 C26.67 12.62 26.34 17.24 26 22 C17.20482879 26.30401996 8.6573403 26.16245993 -1 26 C-1.11624638 17.26860536 -0.89115181 8.68873018 0 0 Z " fill="#F9F9F9" transform="translate(68,77)"/>
<path d="M0 0 C2.10551443 3.15827164 3.88229719 6.40889542 5.68359375 9.74609375 C6.96391153 12.04716034 6.96391153 12.04716034 8.66015625 14.16015625 C10 16 10 16 10 18 C10.33 18.33 10.66 18.66 11 19 C11.73286763 27.62397723 11.89579907 40.65630139 7 48 C5.0546875 48.29296875 5.0546875 48.29296875 2.875 48.1875 C1.59625 48.125625 0.3175 48.06375 -1 48 C-1.68416471 36.65019611 -2.15298709 25.37204047 -2 14 C-2.66 13.67 -3.32 13.34 -4 13 C-4 17.29 -4 21.58 -4 26 C-4.33 26 -4.66 26 -5 26 C-5 21.05 -5 16.1 -5 11 C-2.36 11 0.28 11 3 11 C2.505 10.05125 2.01 9.1025 1.5 8.125 C0 5 0 5 0 3 C-12.375 3.99 -12.375 3.99 -25 5 C-19.58139657 1.38759771 -13.40722372 1.881352 -7.0625 1.9375 C-6.03672852 1.94426758 -6.03672852 1.94426758 -4.99023438 1.95117188 C-3.32678396 1.9628044 -1.6633795 1.98073306 0 2 C0 1.34 0 0.68 0 0 Z " fill="#7D5F41" transform="translate(54,54)"/>
<path d="M0 0 C5.52018751 3.33948533 9.21546214 7.18508665 12.55078125 12.6796875 C13.03804688 13.43507813 13.5253125 14.19046875 14.02734375 14.96875 C19.21574426 24.3310593 19.06736159 35.86662352 16.78125 46.13671875 C13.21406717 56.52560581 6.41071316 65.38932293 -3.38671875 70.5546875 C-14.02999277 75.32081323 -25.81173477 76.38231341 -36.9375 72.4453125 C-47.51213416 67.33577569 -56.11181907 59.88459036 -60.625 48.7890625 C-63.71214943 37.84504461 -63.99643603 26.87091705 -59.05078125 16.49609375 C-53.42158274 6.59694222 -46.23414849 -0.03897012 -35.6875 -4.484375 C-23.58128559 -7.60950152 -10.86417745 -5.85660602 0 0 Z M-53.91015625 11.59375 C-60.9172893 21.09072729 -62.00911692 32.18835754 -60.44921875 43.6796875 C-57.15963039 55.59715825 -49.29729154 63.31251316 -38.9765625 69.41796875 C-30.41094381 73.69415861 -19.96025735 74.28240469 -10.65625 71.9921875 C-8.43320675 71.04788594 -6.48520885 69.97677784 -4.44921875 68.6796875 C-3.68222656 68.23238281 -2.91523437 67.78507812 -2.125 67.32421875 C7.55515302 61.35612441 12.82678551 53.53695667 16.171875 42.66015625 C18.09114762 32.6284942 16.26086077 21.52978787 10.86328125 12.8671875 C4.26267471 3.97001956 -3.76911147 -1.20436368 -14.44921875 -4.3203125 C-30.8429953 -6.49839032 -43.47667109 -0.84067752 -53.91015625 11.59375 Z " fill="#E1D1D2" transform="translate(115.44921875,8.3203125)"/>
<path d="M0 0 C2.69447144 0.96724616 3.74747323 1.58352253 5.4375 3.875 C5.51171875 6.57421875 5.51171875 6.57421875 5.125 9.5625 C4.94517578 11.05330078 4.94517578 11.05330078 4.76171875 12.57421875 C4.65472656 13.33347656 4.54773438 14.09273437 4.4375 14.875 C5.7575 14.875 7.0775 14.875 8.4375 14.875 C8.1075 12.235 7.7775 9.595 7.4375 6.875 C10.79344497 7.4536112 12.07750861 8.51500861 14.4375 10.875 C15.4275 10.875 16.4175 10.875 17.4375 10.875 C19.60494966 12.82483423 21.61599724 14.7737109 23.625 16.875 C24.18380859 17.44734375 24.74261719 18.0196875 25.31835938 18.609375 C26.69823093 20.02462788 28.06876734 21.44897155 29.4375 22.875 C28.4375 25.875 28.4375 25.875 26.8125 27.125 C23.42351244 28.1952066 20.87369696 27.6247157 17.4375 26.875 C16.4475 26.215 15.4575 25.555 14.4375 24.875 C9.26925359 24.20608521 9.26925359 24.20608521 4.58203125 25.99609375 C2.73888982 27.50067836 2.73888982 27.50067836 0.4375 29.875 C-0.2225 29.545 -0.8825 29.215 -1.5625 28.875 C4.19679978 22.01285558 4.19679978 22.01285558 9.375 21.4375 C10.385625 21.581875 11.39625 21.72625 12.4375 21.875 C11.7775 19.895 11.1175 17.915 10.4375 15.875 C6.38143835 16.34300711 2.97161321 16.75453208 -0.5625 18.875 C-2.5625 15.875 -2.5625 15.875 -2.1875 13.6875 C-1.98125 13.089375 -1.775 12.49125 -1.5625 11.875 C-0.5725 11.875 0.4175 11.875 1.4375 11.875 C1.4375 12.865 1.4375 13.855 1.4375 14.875 C2.0975 14.875 2.7575 14.875 3.4375 14.875 C3.4375 12.895 3.4375 10.915 3.4375 8.875 C0.7975 8.875 -1.8425 8.875 -4.5625 8.875 C-4.5625 8.215 -4.5625 7.555 -4.5625 6.875 C-1.9225 6.875 0.7175 6.875 3.4375 6.875 C3.1075 5.885 2.7775 4.895 2.4375 3.875 C0.1275 3.875 -2.1825 3.875 -4.5625 3.875 C-4.62308594 4.47828125 -4.68367188 5.0815625 -4.74609375 5.703125 C-4.82988281 6.50234375 -4.91367188 7.3015625 -5 8.125 C-5.08121094 8.91390625 -5.16242188 9.7028125 -5.24609375 10.515625 C-5.53884993 12.69864639 -5.98314419 14.7523182 -6.5625 16.875 C-7.5525 16.875 -8.5425 16.875 -9.5625 16.875 C-9.5625 16.215 -9.5625 15.555 -9.5625 14.875 C-8.9025 14.875 -8.2425 14.875 -7.5625 14.875 C-7.871875 13.575625 -7.871875 13.575625 -8.1875 12.25 C-8.61380484 8.41325643 -8.1874927 6.35712722 -6.5625 2.875 C-4.28358109 0.43891427 -3.3513156 -0.16347881 0 0 Z " fill="#0D0A0A" transform="translate(73.5625,34.125)"/>
<path d="M0 0 C2 1 4 2 6 3 C10.08014692 2.75519119 12.28542621 1.8572869 16 0 C18.31 2.31 20.62 4.62 23 7 C22 10 22 10 20.171875 11.16796875 C9.90743742 15.48896586 0.52750298 15.19054274 -9.7578125 11.0703125 C-12 10 -12 10 -15 8 C-12.2886357 1.09834542 -7.16565029 -1.24374206 0 0 Z " fill="#FDFBFB" transform="translate(88,58)"/>
<path d="M0 0 C0.99 0 1.98 0 3 0 C3.33 2.97 3.66 5.94 4 9 C4.66 7.02 5.32 5.04 6 3 C6.99 3.33 7.98 3.66 9 4 C9.33 6.64 9.66 9.28 10 12 C11.32 11.67 12.64 11.34 14 11 C14.28773432 15.79077635 13.44169975 19.00617556 11.5 23.375 C10.80390625 24.96441406 10.80390625 24.96441406 10.09375 26.5859375 C9.7328125 27.38257812 9.371875 28.17921875 9 29 C-4.71428571 17.28571429 -4.71428571 17.28571429 -7 15 C-7.07244053 12.98035801 -7.08377188 10.95832876 -7.0625 8.9375 C-7.05347656 7.83277344 -7.04445313 6.72804688 -7.03515625 5.58984375 C-7.02355469 4.73519531 -7.01195313 3.88054688 -7 3 C-5.68 2.67 -4.36 2.34 -3 2 C-3 2.66 -3 3.32 -3 4 C-2.34 4 -1.68 4 -1 4 C-0.67 2.68 -0.34 1.36 0 0 Z " fill="#0B0909" transform="translate(97,21)"/>
<path d="M0 0 C0 5.28 0 10.56 0 16 C-7.59 16.33 -15.18 16.66 -23 17 C-23.33 12.05 -23.66 7.1 -24 2 C-15.6015625 1.0234375 -15.6015625 1.0234375 -13 1 C-12.34 1.66 -11.68 2.32 -11 3 C-12.32 3 -13.64 3 -15 3 C-15 4.65 -15 6.3 -15 8 C-14.175 7.835 -13.35 7.67 -12.5 7.5 C-8.58727683 6.94103955 -4.94816827 6.93192813 -1 7 C-1 5.35 -1 3.7 -1 2 C-3.31 2 -5.62 2 -8 2 C-8 1.67 -8 1.34 -8 1 C-2.25 0 -2.25 0 0 0 Z " fill="#191917" transform="translate(46,65)"/>
<path d="M0 0 C2.31 0 4.62 0 7 0 C7.33 1.32 7.66 2.64 8 4 C5.36 4 2.72 4 0 4 C0 4.66 0 5.32 0 6 C2.64 6 5.28 6 8 6 C8 7.98 8 9.96 8 12 C7.34 12 6.68 12 6 12 C6 11.01 6 10.02 6 9 C5.01 9.33 4.02 9.66 3 10 C3.33 11.98 3.66 13.96 4 16 C4.515625 15.505 5.03125 15.01 5.5625 14.5 C8.80680017 12.50350759 11.26217334 12.78435615 15 13 C15.66 14.98 16.32 16.96 17 19 C15.453125 19.061875 15.453125 19.061875 13.875 19.125 C9.42656335 20.12948569 8.20219325 21.38688222 5.45703125 24.8203125 C4 26 4 26 1.96484375 25.921875 C-0.56610851 24.73439044 -1.08953101 23.63934949 -2.25 21.125 C-2.58515625 20.42632812 -2.9203125 19.72765625 -3.265625 19.0078125 C-4 17 -4 17 -4 14 C-3.34 13.67 -2.68 13.34 -2 13 C-2.04125 11.96875 -2.0825 10.9375 -2.125 9.875 C-2.00424851 6.13170373 -1.35127982 3.46265453 0 0 Z " fill="#EEECEC" transform="translate(69,37)"/>
<path d="M0 0 C3.04101363 2.05500279 5.51388114 4.31010091 8 7 C8.54011719 7.53367187 9.08023438 8.06734375 9.63671875 8.6171875 C17.32644608 16.71367622 19.44223816 25.00933257 19.5 35.9375 C19.50628418 36.86191895 19.51256836 37.78633789 19.51904297 38.73876953 C19.42694203 43.61654246 19.27354501 46.18792858 16 50 C16.03665771 49.37657715 16.07331543 48.7531543 16.11108398 48.11083984 C16.929062 32.05598741 16.17805593 20.4086676 5 8 C2.24294879 5.99459316 2.24294879 5.99459316 -0.8125 4.3125 C-1.80894531 3.73113281 -2.80539063 3.14976563 -3.83203125 2.55078125 C-10.30914745 -0.61989092 -16.2210592 -1.38632253 -23.3125 -1.375 C-24.1475708 -1.37628906 -24.9826416 -1.37757812 -25.84301758 -1.37890625 C-32.18372434 -1.27029658 -37.43761326 -0.20301961 -43 3 C-42.70703125 1.10546875 -42.70703125 1.10546875 -42 -1 C-28.77827194 -7.73559731 -13.0273736 -6.67337719 0 0 Z " fill="#1B1B1B" transform="translate(116,5)"/>
<path d="M0 0 C7.15801225 5.82628904 13.52591766 12.4382985 20 19 C19.67 19.99 19.34 20.98 19 22 C18.401875 21.360625 17.80375 20.72125 17.1875 20.0625 C15.09189663 17.79689611 15.09189663 17.79689611 12 17 C12.33 19.64 12.66 22.28 13 25 C11.68 25 10.36 25 9 25 C9.03480469 24.24074219 9.06960937 23.48148438 9.10546875 22.69921875 C9.13253906 21.70535156 9.15960938 20.71148437 9.1875 19.6875 C9.22230469 18.70136719 9.25710937 17.71523438 9.29296875 16.69921875 C9.22013271 13.99055955 9.22013271 13.99055955 7.6796875 12.1328125 C5.91306844 10.6934357 5.91306844 10.6934357 2.9375 11.1875 C-0.09515868 11.76648363 -0.09515868 11.76648363 -2 14 C-2.46290221 16.66242821 -2.46290221 16.66242821 -2.625 19.625 C-2.69976562 20.62789062 -2.77453125 21.63078125 -2.8515625 22.6640625 C-2.90054688 23.43492188 -2.94953125 24.20578125 -3 25 C-3.99 25 -4.98 25 -6 25 C-6.47783728 16.53166158 -6.18769793 9.53479957 -2 2 C-1.34 1.34 -0.68 0.68 0 0 Z " fill="#F7E9E9" transform="translate(69,24)"/>
<path d="M0 0 C7.47670866 3.99253763 12.90893392 7.93259617 17.35546875 15.2578125 C18.08636719 16.39089844 18.08636719 16.39089844 18.83203125 17.546875 C24.02043176 26.9091843 23.87204909 38.44474852 21.5859375 48.71484375 C18.871593 56.61996657 14.92815952 62.17891509 8.35546875 67.2578125 C9.73007728 64.33186005 11.34143055 61.81353902 13.23046875 59.1953125 C19.63026412 49.61130522 21.64491806 40.55930846 19.8828125 29.21484375 C17.74534185 19.11625489 13.31929852 11.86132578 4.88671875 5.83203125 C-4.69433468 -0.12655599 -13.37509622 -2.06728827 -24.64453125 -0.7421875 C-31.19589234 0.85709148 -36.94396857 3.71079572 -42.64453125 7.2578125 C-41.18578415 3.39254477 -39.39598979 2.28749291 -35.70703125 0.5703125 C-34.83175781 0.15394531 -33.95648438 -0.26242188 -33.0546875 -0.69140625 C-23.41332496 -4.8948528 -9.52149561 -4.22193449 0 0 Z " fill="#EAD9D9" transform="translate(110.64453125,5.7421875)"/>
<path d="M0 0 C2.98041321 1.40610917 5.61237645 3.05268907 8.3125 4.9375 C14.74051589 9.24385051 20.34279896 11.3283157 28 12 C24.12328894 14.67289025 20.20732397 14.01875653 15.75 13.625 C15.00492188 13.56828125 14.25984375 13.5115625 13.4921875 13.453125 C11.66064892 13.31223742 9.83018648 13.15748116 8 13 C8 11.02 8 9.04 8 7 C7.34 7 6.68 7 6 7 C6.01160156 7.70382813 6.02320312 8.40765625 6.03515625 9.1328125 C6.10826019 17.13247248 5.66028987 25.02935805 5 33 C4.67 33 4.34 33 4 33 C3.67 30.03 3.34 27.06 3 24 C2.67 24 2.34 24 2 24 C2.01047363 23.37955811 2.02094727 22.75911621 2.03173828 22.11987305 C2.07330886 19.30912323 2.09932933 16.4984381 2.125 13.6875 C2.14175781 12.71103516 2.15851563 11.73457031 2.17578125 10.72851562 C2.18222656 9.79072266 2.18867187 8.85292969 2.1953125 7.88671875 C2.20578613 7.02264404 2.21625977 6.15856934 2.22705078 5.26831055 C2.15090168 2.71819279 2.15090168 2.71819279 0 0 Z " fill="#232220" transform="translate(62,70)"/>
<path d="M0 0 C1.64320391 2.46480586 3.12039648 4.91712802 4.5625 7.5 C4.99691406 8.2734375 5.43132813 9.046875 5.87890625 9.84375 C7 12 7 12 8 15 C5.03 15 2.06 15 -1 15 C-1 19.62 -1 24.24 -1 29 C-1.33 29 -1.66 29 -2 29 C-2 24.05 -2 19.1 -2 14 C-2.66 13.67 -3.32 13.34 -4 13 C-4 17.29 -4 21.58 -4 26 C-4.33 26 -4.66 26 -5 26 C-5 21.05 -5 16.1 -5 11 C-2.36 11 0.28 11 3 11 C2.505 10.05125 2.01 9.1025 1.5 8.125 C0 5 0 5 0 3 C-12.375 3.99 -12.375 3.99 -25 5 C-19.58139657 1.38759771 -13.40722372 1.881352 -7.0625 1.9375 C-6.03672852 1.94426758 -6.03672852 1.94426758 -4.99023438 1.95117188 C-3.32678396 1.9628044 -1.6633795 1.98073306 0 2 C0 1.34 0 0.68 0 0 Z " fill="#393640" transform="translate(54,54)"/>
<path d="M0 0 C0 4.95 0 9.9 0 15 C-0.33 15 -0.66 15 -1 15 C-1 13.02 -1 11.04 -1 9 C-2.19625 9.350625 -3.3925 9.70125 -4.625 10.0625 C-8.37673012 11.01712172 -11.2006739 10.94983153 -15 10 C-15 11.65 -15 13.3 -15 15 C-15.33 15 -15.66 15 -16 15 C-16 13.35 -16 11.7 -16 10 C-16.99 9.67 -17.98 9.34 -19 9 C-18.01 9 -17.02 9 -16 9 C-16.33 7.35 -16.66 5.7 -17 4 C-19.31 3.67 -21.62 3.34 -24 3 C-24 2.67 -24 2.34 -24 2 C-22.20991533 1.77848451 -20.41781838 1.57317787 -18.625 1.375 C-17.62726562 1.25898437 -16.62953125 1.14296875 -15.6015625 1.0234375 C-14.74304687 1.01570313 -13.88453125 1.00796875 -13 1 C-12.34 1.66 -11.68 2.32 -11 3 C-12.32 3 -13.64 3 -15 3 C-15 4.65 -15 6.3 -15 8 C-14.175 7.835 -13.35 7.67 -12.5 7.5 C-8.58727683 6.94103955 -4.94816827 6.93192813 -1 7 C-1 5.35 -1 3.7 -1 2 C-3.31 2 -5.62 2 -8 2 C-8 1.67 -8 1.34 -8 1 C-2.25 0 -2.25 0 0 0 Z " fill="#111113" transform="translate(46,65)"/>
<path d="M0 0 C2.31 0.33 4.62 0.66 7 1 C7.69545969 4.73809585 8 8.20769662 8 12 C8.33 12.66 8.66 13.32 9 14 C6.36 14 3.72 14 1 14 C0.67 9.38 0.34 4.76 0 0 Z " fill="#1E1E26" transform="translate(22,68)"/>
<path d="M0 0 C0.33 2.31 0.66 4.62 1 7 C-3.62 7.33 -8.24 7.66 -13 8 C-13 6.35 -13 4.7 -13 3 C-8.96742408 -0.65452193 -5.14193035 -0.26145409 0 0 Z " fill="#343442" transform="translate(44,65)"/>
<path d="M0 0 C0.66 0.33 1.32 0.66 2 1 C1.41992188 1.80050781 1.41992188 1.80050781 0.828125 2.6171875 C-6.67807976 13.35626263 -8.45757153 21.39919567 -8.04296875 34.31640625 C-8.02878906 35.53199219 -8.01460937 36.74757812 -8 38 C-9 39 -9 39 -11.06640625 39.09765625 C-11.89011719 39.08605469 -12.71382812 39.07445312 -13.5625 39.0625 C-14.38878906 39.05347656 -15.21507812 39.04445312 -16.06640625 39.03515625 C-16.70449219 39.02355469 -17.34257813 39.01195312 -18 39 C-18 38.67 -18 38.34 -18 38 C-15.36 38 -12.72 38 -10 38 C-10.15855469 37.29101562 -10.31710938 36.58203125 -10.48046875 35.8515625 C-12.5890747 24.27801105 -10.20562855 14.62644668 -3.8125 4.875 C-1.2994012 1.2994012 -1.2994012 1.2994012 0 0 Z " fill="#4B411B" transform="translate(62,14)"/>
<path d="M0 0 C2.67873095 0.96159573 3.73998707 1.61331366 5.4375 3.875 C5.51171875 6.35546875 5.51171875 6.35546875 5.125 9.0625 C4.94517578 10.41408203 4.94517578 10.41408203 4.76171875 11.79296875 C4.65472656 12.48003906 4.54773438 13.16710938 4.4375 13.875 C4.1075 13.875 3.7775 13.875 3.4375 13.875 C3.4375 12.225 3.4375 10.575 3.4375 8.875 C0.7975 8.875 -1.8425 8.875 -4.5625 8.875 C-4.5625 8.215 -4.5625 7.555 -4.5625 6.875 C-1.9225 6.875 0.7175 6.875 3.4375 6.875 C3.1075 5.885 2.7775 4.895 2.4375 3.875 C0.1275 3.875 -2.1825 3.875 -4.5625 3.875 C-4.62308594 4.47828125 -4.68367188 5.0815625 -4.74609375 5.703125 C-4.82988281 6.50234375 -4.91367188 7.3015625 -5 8.125 C-5.08121094 8.91390625 -5.16242188 9.7028125 -5.24609375 10.515625 C-5.53884993 12.69864639 -5.98314419 14.7523182 -6.5625 16.875 C-7.5525 16.875 -8.5425 16.875 -9.5625 16.875 C-9.5625 16.215 -9.5625 15.555 -9.5625 14.875 C-8.9025 14.875 -8.2425 14.875 -7.5625 14.875 C-7.871875 13.575625 -7.871875 13.575625 -8.1875 12.25 C-8.61380484 8.41325643 -8.1874927 6.35712722 -6.5625 2.875 C-4.28358109 0.43891427 -3.3513156 -0.16347881 0 0 Z " fill="#595959" transform="translate(73.5625,34.125)"/>
<path d="M0 0 C0.99 0 1.98 0 3 0 C3 0.66 3 1.32 3 2 C3.66 2 4.32 2 5 2 C5 6.29 5 10.58 5 15 C4.01 15.33 3.02 15.66 2 16 C0.515625 14.8828125 0.515625 14.8828125 -1 13 C-1.328125 10.1171875 -1.328125 10.1171875 -1.25 6.875 C-1.23453125 5.79992187 -1.2190625 4.72484375 -1.203125 3.6171875 C-1 1 -1 1 0 0 Z " fill="#2D2727" transform="translate(91,23)"/>
<path d="M0 0 C0.33 1.32 0.66 2.64 1 4 C-7.415 4.495 -7.415 4.495 -16 5 C-16 4.67 -16 4.34 -16 4 C-18.97 3.67 -21.94 3.34 -25 3 C-25 2.67 -25 2.34 -25 2 C-19.52140877 1.12489617 -14.10142201 0.70975966 -8.5625 0.4375 C-7.73556641 0.39431641 -6.90863281 0.35113281 -6.05664062 0.30664062 C-4.03790451 0.20161967 -2.01897049 0.10041441 0 0 Z " fill="#231C07" transform="translate(53,52)"/>
<path d="M0 0 C0.99 0 1.98 0 3 0 C2.58660049 7.75480458 1.49678614 14.00642773 -2 21 C-2.66 21 -3.32 21 -4 21 C-3.39879781 16.29058283 -2.53650882 11.71722132 -1.4765625 7.08984375 C-0.93954327 4.73488237 -0.45896817 2.37133556 0 0 Z " fill="#FFDF6C" transform="translate(42,29)"/>
<path d="M0 0 C0.33 0 0.66 0 1 0 C1.5809171 11.95721025 0.88001324 22.265866 -7 32 C-8.93269597 33.78988592 -10.9113091 35.38601158 -13 37 C-11.62539147 34.07404755 -10.0140382 31.55572652 -8.125 28.9375 C-2.02387263 19.79326754 -0.34587233 10.87768468 0 0 Z " fill="#F3DDDD" transform="translate(132,36)"/>
<path d="M0 0 C0.33 0 0.66 0 1 0 C1.33 4.29 1.66 8.58 2 13 C3.32 13 4.64 13 6 13 C6.054138 15.24973447 6.09285491 17.49984383 6.125 19.75 C6.14820313 21.00296875 6.17140625 22.2559375 6.1953125 23.546875 C6.01537302 26.72820492 5.68998582 28.36521896 4 31 C3.34 31 2.68 31 2 31 C2.63065155 25.2190275 3.65155132 19.6556294 5 14 C3.35 14.33 1.7 14.66 0 15 C0 10.05 0 5.1 0 0 Z " fill="#EECB4D" transform="translate(14,22)"/>
<path d="M0 0 C-1.35973034 2.92764905 -2.94026223 5.34414908 -4.9375 7.875 C-9.30519243 13.63482797 -11.43222344 19.00530457 -13 26 C-13.33 26 -13.66 26 -14 26 C-13.76181762 15.62823986 -9.99014771 8.96215077 -3.33203125 1.21484375 C-2 0 -2 0 0 0 Z " fill="#E0D1D1" transform="translate(68,12)"/>
<path d="M0 0 C0 3.50032264 -0.97283421 4.8435841 -3.23828125 7.43359375 C-6.62785119 10.44737988 -10.69843203 12.59412169 -15 14 C-17.30859375 13.62890625 -17.30859375 13.62890625 -19 13 C-16.40816404 11.27210936 -14.0010335 10.04655922 -11.1875 8.75 C-6.48878651 6.44536015 -3.45123849 3.90534881 0 0 Z " fill="#0C0C0C" transform="translate(123,69)"/>
<path d="M0 0 C-0.33 0.66 -0.66 1.32 -1 2 C-3.80078125 2.88671875 -3.80078125 2.88671875 -7.3125 3.6875 C-8.46363281 3.95949219 -9.61476563 4.23148438 -10.80078125 4.51171875 C-13.7103822 4.95579704 -15.28617052 4.99842122 -18 4 C-17.01 4 -16.02 4 -15 4 C-15 3.34 -15 2.68 -15 2 C-10.13948404 -0.59227518 -5.34728867 -0.18689553 0 0 Z " fill="#0A0A12" transform="translate(38,55)"/>
<path d="M0 0 C0.99 0 1.98 0 3 0 C2.57540327 2.25247061 2.13481972 4.50193165 1.6875 6.75 C1.44386719 8.00296875 1.20023438 9.2559375 0.94921875 10.546875 C0.05956628 13.7833062 -0.783282 15.54111953 -3 18 C-2.32418477 11.91766294 -1.26361972 5.98685848 0 0 Z " fill="#FFE37D" transform="translate(30,32)"/>
<path d="M0 0 C0.66 0 1.32 0 2 0 C3.38226016 2.76452033 3.09525387 5.0461363 3.0625 8.125 C3.05347656 9.22070312 3.04445313 10.31640625 3.03515625 11.4453125 C3.02355469 12.28835937 3.01195312 13.13140625 3 14 C2.01 14 1.02 14 0 14 C0 9.38 0 4.76 0 0 Z " fill="#FFF3CA" transform="translate(20,20)"/>
<path d="M0 0 C-1.45336318 3.80797391 -3.17908118 4.96067277 -6.8125 6.6875 C-8.09060547 7.31205078 -8.09060547 7.31205078 -9.39453125 7.94921875 C-11.93663655 8.97444562 -14.30087623 9.55903005 -17 10 C-17 9.34 -17 8.68 -17 8 C-16.12988281 7.63648437 -16.12988281 7.63648437 -15.2421875 7.265625 C-11.49369637 5.65736148 -7.92089623 4.08337704 -4.5625 1.75 C-2 0 -2 0 0 0 Z " fill="#E1C8C8" transform="translate(119,72)"/>
<path d="M0 0 C6.38157011 2.29839245 11.64906281 4.81231003 17 9 C16.34 9.66 15.68 10.32 15 11 C14.43152344 10.60167969 13.86304687 10.20335937 13.27734375 9.79296875 C8.64274107 6.61296591 4.2500166 4.01064466 -1 2 C-0.67 1.34 -0.34 0.68 0 0 Z " fill="#EACECE" transform="translate(105,4)"/>
<path d="M0 0 C0.66 0.33 1.32 0.66 2 1 C1.67 1.845625 1.34 2.69125 1 3.5625 C-0.06105954 7.20989216 -0.15109013 10.22274664 0 14 C-1.32 14.33 -2.64 14.66 -4 15 C-4 14.34 -4 13.68 -4 13 C-3.34 13 -2.68 13 -2 13 C-2.309375 11.700625 -2.309375 11.700625 -2.625 10.375 C-3.04278569 6.61492881 -2.44740241 4.45768353 -1 1 C-0.67 0.67 -0.34 0.34 0 0 Z " fill="#474747" transform="translate(68,36)"/>
<path d="M0 0 C0 3.6987636 -0.84352062 4.35773852 -3.25 7.0625 C-4.15492187 8.10083984 -4.15492187 8.10083984 -5.078125 9.16015625 C-6.97018869 10.97146113 -8.60605599 11.9778071 -11 13 C-10.401875 12.278125 -9.80375 11.55625 -9.1875 10.8125 C-6.98526861 8.11785113 -6.98526861 8.11785113 -5.5 5.375 C-3.9313521 2.89130749 -2.43797127 1.59729152 0 0 Z " fill="#030303" transform="translate(130,63)"/>
<path d="M0 0 C1.98 0 3.96 0 6 0 C6 1.65 6 3.3 6 5 C4.02 5 2.04 5 0 5 C0 3.35 0 1.7 0 0 Z " fill="#78786B" transform="translate(39,74)"/>
<path d="M0 0 C-1.32 0.33 -2.64 0.66 -4 1 C-4.33 2.32 -4.66 3.64 -5 5 C-5.33 4.01 -5.66 3.02 -6 2 C-8.31 1.67 -10.62 1.34 -13 1 C-13 0.67 -13 0.34 -13 0 C-8.34462607 -0.83796731 -4.62921525 -1.0161692 0 0 Z " fill="#1D1D35" transform="translate(35,67)"/>
<path d="M0 0 C0.34833144 4.87664009 -0.58314288 7.77050005 -3 12 C-3.33 12 -3.66 12 -4 12 C-3.88648483 10.18674449 -3.75887039 8.37436643 -3.625 6.5625 C-3.55539063 5.55316406 -3.48578125 4.54382812 -3.4140625 3.50390625 C-3.27742188 2.67761719 -3.14078125 1.85132813 -3 1 C-1 0 -1 0 0 0 Z " fill="#FFE175" transform="translate(23,34)"/>
<path d="M0 0 C1.65 0 3.3 0 5 0 C5.33 1.65 5.66 3.3 6 5 C4.02 5 2.04 5 0 5 C0 3.35 0 1.7 0 0 Z " fill="#888874" transform="translate(24,69)"/>
<path d="M0 0 C1.3622412 0.27517727 2.72073491 0.5754364 4.0625 0.9375 C4.0625 1.2675 4.0625 1.5975 4.0625 1.9375 C2.268125 2.0303125 2.268125 2.0303125 0.4375 2.125 C-4.34480383 2.68662287 -6.54257231 4.62744551 -9.9375 7.9375 C-10.5975 7.6075 -11.2575 7.2775 -11.9375 6.9375 C-5.98424502 -0.73856189 -5.98424502 -0.73856189 0 0 Z " fill="#4D4D4D" transform="translate(83.9375,56.0625)"/>
<path d="M0 0 C0.99 0 1.98 0 3 0 C3 0.99 3 1.98 3 3 C3.66 3 4.32 3 5 3 C4.34 4.32 3.68 5.64 3 7 C2.34 7 1.68 7 1 7 C-1 4 -1 4 -0.625 1.8125 C-0.41875 1.214375 -0.2125 0.61625 0 0 Z " fill="#2C2C2C" transform="translate(72,46)"/>
<path d="M0 0 C0.66 0.33 1.32 0.66 2 1 C2.59355614 3.64860427 2.74209269 6.29197322 3 9 C1.68 9 0.36 9 -1 9 C-1.125 2.25 -1.125 2.25 0 0 Z " fill="#AFAFAF" transform="translate(79,40)"/>
<path d="M0 0 C0 0.66 0 1.32 0 2 C-5.94 1.67 -11.88 1.34 -18 1 C-18 0.67 -18 0.34 -18 0 C-15.75067773 -0.1954625 -13.50049858 -0.38108226 -11.25 -0.5625 C-9.99703125 -0.66691406 -8.7440625 -0.77132812 -7.453125 -0.87890625 C-4.60547636 -0.97876723 -2.65713933 -0.90584295 0 0 Z " fill="#4B4E4E" transform="translate(107,2)"/>
<path d="M0 0 C1.65 0 3.3 0 5 0 C5 1.65 5 3.3 5 5 C3.35 5 1.7 5 0 5 C0 3.35 0 1.7 0 0 Z " fill="#84846E" transform="translate(32,75)"/>
<path d="M0 0 C1.58971965 2.38457948 2.86741593 4.6304124 4.125 7.1875 C4.47820313 7.90292969 4.83140625 8.61835937 5.1953125 9.35546875 C5.46085937 9.89816406 5.72640625 10.44085938 6 11 C5.01 11.495 5.01 11.495 4 12 C3.13353333 10.56988027 2.28218171 9.13059381 1.4375 7.6875 C0.72400391 6.48673828 0.72400391 6.48673828 -0.00390625 5.26171875 C-1 3 -1 3 0 0 Z " fill="#E1BFBF" transform="translate(56,54)"/>
<path d="M0 0 C0.66 0 1.32 0 2 0 C4.59227518 4.86051596 4.18689553 9.65271133 4 15 C3.67 15 3.34 15 3 15 C2.87625 13.96875 2.7525 12.9375 2.625 11.875 C2.06051147 8.37517112 1.16311332 5.33425817 0 2 C0 1.34 0 0.68 0 0 Z " fill="#050505" transform="translate(131,25)"/>
<path d="M0 0 C1.98 0 3.96 0 6 0 C6 1.32 6 2.64 6 4 C4.02 4 2.04 4 0 4 C0 2.68 0 1.36 0 0 Z " fill="#96967F" transform="translate(38,68)"/>
<path d="M0 0 C1.32 0 2.64 0 4 0 C4.33 1.65 4.66 3.3 5 5 C3.35 5 1.7 5 0 5 C0 3.35 0 1.7 0 0 Z " fill="#878772" transform="translate(31,68)"/>
<path d="M0 0 C0.33 0 0.66 0 1 0 C1 2.64 1 5.28 1 8 C-2.3 8 -5.6 8 -9 8 C-9 7.67 -9 7.34 -9 7 C-5.535 6.505 -5.535 6.505 -2 6 C-1.34 4.02 -0.68 2.04 0 0 Z " fill="#402F1E" transform="translate(63,95)"/>
<path d="M0 0 C0.66 0.33 1.32 0.66 2 1 C1.05016642 2.50539661 0.08988109 4.00420347 -0.875 5.5 C-1.40867187 6.3353125 -1.94234375 7.170625 -2.4921875 8.03125 C-2.98976562 8.6809375 -3.48734375 9.330625 -4 10 C-4.66 10 -5.32 10 -6 10 C-4.6302836 6.00499382 -2.74277578 3.19990508 0 0 Z " fill="#3A382F" transform="translate(62,14)"/>
<path d="M0 0 C1.65 0 3.3 0 5 0 C5 1.32 5 2.64 5 4 C3.35 4 1.7 4 0 4 C0 2.68 0 1.36 0 0 Z " fill="#A0A07D" transform="translate(25,76)"/>
<path d="M0 0 C2.625 -0.1875 2.625 -0.1875 5 0 C5.33 0.99 5.66 1.98 6 3 C3.36 3 0.72 3 -2 3 C-1.34 2.01 -0.68 1.02 0 0 Z " fill="#FAFAFA" transform="translate(71,37)"/>
<path d="M0 0 C1.65 0 3.3 0 5 0 C3.68 2.31 2.36 4.62 1 7 C0.67 7 0.34 7 0 7 C0 4.69 0 2.38 0 0 Z " fill="#F2E2A2" transform="translate(56,15)"/>
<path d="M0 0 C0.33 1.32 0.66 2.64 1 4 C3.97 4.495 3.97 4.495 7 5 C7 5.33 7 5.66 7 6 C4.36 6 1.72 6 -1 6 C-0.67 4.02 -0.34 2.04 0 0 Z " fill="#272723" transform="translate(24,76)"/>
<path d="M0 0 C0 4.38968456 -2.12805101 5.76905739 -5 9 C-5.99 8.67 -6.98 8.34 -8 8 C-5.33333333 5.33333333 -2.66666667 2.66666667 0 0 Z " fill="#282828" transform="translate(123,69)"/>
<path d="" fill="#41A741" transform="translate(0,0)"/>
</svg>
