<?xml version="1.0" encoding="UTF-8"?>
<svg version="1.1" xmlns="http://www.w3.org/2000/svg" width="219" height="301">
<path d="M0 0 C2.27049939 1.1744929 4.43837834 2.37576852 6.625 3.6875 C7.88103833 4.42268214 9.13755341 5.15705034 10.39453125 5.890625 C11.31806396 6.43299805 11.31806396 6.43299805 12.26025391 6.98632812 C17.84492673 10.24026604 23.57048197 13.24805752 29.28515625 16.265625 C30.04207764 16.66531494 30.79899902 17.06500488 31.57885742 17.47680664 C33.07686921 18.2666674 34.57569379 19.05498913 36.07543945 19.84155273 C39.7856395 21.79458413 43.4289666 23.79867804 47 26 C53.90544115 30.20689845 60.89016424 34.12190777 68 38 C68 66.71 68 95.42 68 125 C51.06206897 134.52758621 51.06206897 134.52758621 42.7265625 138.60546875 C39.21773024 140.40010072 35.89784308 142.44759098 32.54296875 144.51171875 C29.85407048 146.08540575 27.11584663 147.45386872 24.3125 148.8125 C18.70438874 151.5547282 13.39361893 154.6711232 8.07543945 157.92895508 C6.38912661 158.96167228 4.69489687 159.98143217 3 161 C2.319375 161.43828125 1.63875 161.8765625 0.9375 162.328125 C-2.70972116 163.59288718 -5.94550568 162.47312576 -9.359375 160.94140625 C-10.14828125 160.48636719 -10.9371875 160.03132812 -11.75 159.5625 C-12.70777344 159.01980469 -13.66554687 158.47710937 -14.65234375 157.91796875 C-16.30943359 156.96857422 -16.30943359 156.96857422 -18 156 C-20.76654036 154.45059571 -23.53980789 152.91336167 -26.3125 151.375 C-27.06934082 150.9536377 -27.82618164 150.53227539 -28.60595703 150.09814453 C-35.60761095 146.20353753 -42.64074719 142.36759294 -49.68481445 138.55029297 C-57.84133945 134.1187281 -65.90577087 129.55300389 -74 125 C-74 96.29 -74 67.58 -74 38 C-67.07 34.04 -60.14 30.08 -53 26 C-50.834375 24.72125 -48.66875 23.4425 -46.4375 22.125 C-41.60472246 19.28340977 -36.63745205 16.7992003 -31.60546875 14.33203125 C-28.56351216 12.77684805 -25.82261627 10.92178129 -23 9 C-20.24686356 7.45083454 -17.47108627 5.95125428 -14.68359375 4.46484375 C-12.43475152 3.23730978 -10.28846086 1.93064045 -8.125 0.5625 C-4.48117018 -1.25941491 -3.78599631 -1.15320577 0 0 Z M-14.3125 13.625 C-18.97300907 16.32684862 -23.65824215 18.88075839 -28.5 21.25 C-32.5725359 23.2460255 -36.24758419 25.4451637 -40 28 C-43.63503631 30.05867752 -47.3194647 32.02413368 -51 34 C-53.06328021 35.12356843 -55.12581281 36.24851112 -57.1875 37.375 C-58.79166667 38.25 -60.39583333 39.125 -62 40 C-59.51420765 42.8565546 -56.83930957 44.20251711 -53.4375 45.8125 C-49.50671017 47.72362831 -45.71871219 49.70368016 -42 52 C-38.37597245 54.23151536 -34.69709445 56.18976951 -30.875 58.0625 C-19.55820084 63.67703602 -19.55820084 63.67703602 -17 66 C-16.5 68.8125 -16.5 68.8125 -17 71 C-23.33605665 70.85599871 -27.48469033 68.1600365 -32.81640625 64.8984375 C-35.86250194 63.08199271 -38.93704448 61.48839728 -42.125 59.9375 C-46.71104605 57.69530017 -51.05250672 55.2367795 -55.35546875 52.4921875 C-59.09310358 50.38321186 -63.07830107 48.7429773 -67 47 C-67 69.44 -67 91.88 -67 115 C-62.90376398 112.6592937 -59.04916647 110.44330255 -55.1875 107.8125 C-51.19138756 105.09569378 -51.19138756 105.09569378 -49 104 C-49 103.34 -49 102.68 -49 102 C-48.319375 101.773125 -47.63875 101.54625 -46.9375 101.3125 C-43.80836205 99.91437453 -41.36076623 98.18909099 -38.6484375 96.12109375 C-37 95 -37 95 -34 94 C-34 93.34 -34 92.68 -34 92 C-33.319375 91.773125 -32.63875 91.54625 -31.9375 91.3125 C-29.37557336 90.16780937 -27.73382057 89.07828036 -25.5625 87.375 C-22.31731764 84.94822986 -20.10538847 84.49934287 -16 85 C-15.67 86.65 -15.34 88.3 -15 90 C-15.51949219 90.2371875 -16.03898437 90.474375 -16.57421875 90.71875 C-19.80382169 92.42456283 -22.7901237 94.45801214 -25.8125 96.5 C-27.15881173 97.40370906 -28.50516714 98.30735305 -29.8515625 99.2109375 C-30.53895508 99.67338867 -31.22634766 100.13583984 -31.93457031 100.61230469 C-34.55354291 102.37190755 -37.17857216 104.12229756 -39.80493164 105.87084961 C-41.05501848 106.7036464 -42.30421332 107.53778377 -43.55249023 108.37329102 C-46.54412659 110.37445585 -49.54475253 112.35727116 -52.57421875 114.30078125 C-53.66347656 115.00589844 -54.75273438 115.71101563 -55.875 116.4375 C-57.32519531 117.36369141 -57.32519531 117.36369141 -58.8046875 118.30859375 C-61.2714391 119.88348357 -61.2714391 119.88348357 -62 123 C-61.10087891 123.42345703 -61.10087891 123.42345703 -60.18359375 123.85546875 C-49.8293439 128.87794272 -39.905673 134.65909835 -29.90771484 140.34716797 C-25.50793741 142.84813297 -21.1020654 145.33773645 -16.6875 147.8125 C-15.9351709 148.23885742 -15.1828418 148.66521484 -14.40771484 149.10449219 C-10.91828232 151.24927503 -10.91828232 151.24927503 -7 152 C-6.67 132.86 -6.34 113.72 -6 94 C-2 93 -2 93 0 94 C0.33 113.14 0.66 132.28 1 152 C13.7974953 145.61261146 13.7974953 145.61261146 26.140625 138.6484375 C29.9935574 136.42721144 33.97082502 134.50306182 37.96484375 132.55078125 C42.25638034 130.35806564 46.37557043 127.90154926 50.50390625 125.41796875 C53 124 53 124 56 123 C54.66437825 119.85029381 53.48447771 118.34358403 50.55078125 116.59765625 C49.52500977 115.97407227 49.52500977 115.97407227 48.47851562 115.33789062 C47.76373047 114.91701172 47.04894531 114.49613281 46.3125 114.0625 C44.91138111 113.22234808 43.51163018 112.37991046 42.11328125 111.53515625 C41.42830566 111.12281738 40.74333008 110.71047852 40.03759766 110.28564453 C37.99331774 108.99578375 36.0521012 107.6156978 34.10546875 106.18359375 C31.36004553 103.80827083 31.36004553 103.80827083 29 104 C29 103.34 29 102.68 29 102 C27.05509693 100.61006705 27.05509693 100.61006705 24.5625 99.25 C23.20705078 98.45529297 23.20705078 98.45529297 21.82421875 97.64453125 C19.99389042 96.57873841 18.16318464 95.51359341 16.33203125 94.44921875 C15.52121094 93.95035156 14.71039063 93.45148438 13.875 92.9375 C13.12992187 92.49277344 12.38484375 92.04804687 11.6171875 91.58984375 C10 90 10 90 9.7578125 87.31640625 C9.87769531 86.16978516 9.87769531 86.16978516 10 85 C14.21697997 84.48573415 16.41653307 85.0191179 19.75 87.5 C20.32234375 87.9640625 20.8946875 88.428125 21.484375 88.90625 C22.95878885 90.19506176 22.95878885 90.19506176 25 90 C25 90.66 25 91.32 25 92 C26.74233889 93.25383971 26.74233889 93.25383971 29.0625 94.5 C33.65301531 97.16315001 38.09215839 99.98634139 42.5 102.9375 C43.1396167 103.36530762 43.7792334 103.79311523 44.43823242 104.23388672 C49.08958813 107.35932236 53.68603657 110.55732652 58.2421875 113.8203125 C59.78556197 115.09287541 59.78556197 115.09287541 61 115 C61 92.56 61 70.12 61 47 C51.34825458 51.82587271 41.773722 56.64678388 32.3125 61.8125 C31.28189453 62.37130859 30.25128906 62.93011719 29.18945312 63.50585938 C23.70418387 66.47140046 23.70418387 66.47140046 18.35229492 69.66674805 C15.66795713 71.18819783 14.03559813 71.26019413 11 71 C10.4465236 68.92446352 10 67.15634036 10 65 C10.53367187 64.90074219 11.06734375 64.80148438 11.6171875 64.69921875 C18.8605881 62.57369628 25.65502705 57.86298586 32.0625 53.9375 C36.64885947 51.13638469 41.39183298 48.75545609 46.21484375 46.390625 C49.56128524 44.71975099 52.78071224 42.9023064 56 41 C52.0089705 37.41300936 52.0089705 37.41300936 47 36 C46.34 36.66 45.68 37.32 45 38 C40.93156207 38.50345219 38.75504104 37.57937459 35.375 35.375 C31.92324773 33.19735041 28.47005213 31.12038194 24.875 29.1875 C21.49869696 27.37098115 18.14593051 25.52164408 14.81640625 23.62109375 C14.09275879 23.20899658 13.36911133 22.79689941 12.62353516 22.37231445 C11.18244845 21.55005491 9.7432677 20.72444466 8.30615234 19.89526367 C4.87234186 17.74669251 4.87234186 17.74669251 1 17 C1 18.32 1 19.64 1 21 C3.25209427 22.84299217 3.25209427 22.84299217 6.25 24.375 C7.33410156 24.97828125 8.41820313 25.5815625 9.53515625 26.203125 C13.85263253 28.44217696 18.24512865 30.49267637 22.69921875 32.4453125 C25 34 25 34 25.83203125 36.6796875 C25.88746094 37.44539063 25.94289063 38.21109375 26 39 C22.42758693 40.26959103 21.16900038 40.07827386 17.66015625 38.453125 C16.45212685 37.7333353 15.2530175 36.99839851 14.0625 36.25 C12.86679287 35.52454388 11.67018571 34.800569 10.47265625 34.078125 C9.60858154 33.5512207 9.60858154 33.5512207 8.72705078 33.01367188 C6.21720424 31.54054736 3.61991169 30.2639574 1 29 C0.32845316 31.28341743 0.32845316 31.28341743 1 34 C2.96633487 35.42966182 5.02820189 36.55038994 7.15234375 37.73046875 C9 39 9 39 10 41.8125 C10 42.534375 10 43.25625 10 44 C6.65747276 44.07427838 4.1964086 44.06546953 1 43 C0.67 48.94 0.34 54.88 0 61 C-1.65 61.33 -3.3 61.66 -5 62 C-6.63959237 60.36040763 -6.16642287 58.4665562 -6.20532227 56.20483398 C-6.2352401 54.67335976 -6.2352401 54.67335976 -6.26576233 53.11094666 C-6.28247482 52.0005452 -6.29918732 50.89014374 -6.31640625 49.74609375 C-6.33718735 48.61551041 -6.35796844 47.48492706 -6.37937927 46.32008362 C-6.44499797 42.69262015 -6.50381677 39.06508167 -6.5625 35.4375 C-6.60567351 32.98501814 -6.6492874 30.532544 -6.69335938 28.08007812 C-6.80069184 22.05346573 -6.9024349 16.02677799 -7 10 C-9.43703762 10 -12.19795725 12.38854895 -14.3125 13.625 Z " fill="#031730" transform="translate(74,1)"/>
<path d="M0 0 C3.96 0 7.92 0 12 0 C12.01458252 0.99330322 12.02916504 1.98660645 12.04418945 3.01000977 C12.10248162 6.72097461 12.1797103 10.43135215 12.26245117 14.1418457 C12.29555592 15.74298519 12.32363221 17.34423732 12.34643555 18.94555664 C12.38024982 21.25715817 12.43257451 23.56774078 12.48828125 25.87890625 C12.49467117 26.58648575 12.5010611 27.29406525 12.50764465 28.02308655 C12.67396599 33.73830393 13.94577621 38.37634111 17.5078125 42.92578125 C21.87339281 46.66921364 26.11489593 49.07833749 32 49 C34.55855046 48.20170032 36.78876235 47.20422182 39.15234375 45.9453125 C41 45 41 45 43 45 C43 44.34 43 43.68 43 43 C43.66 43 44.32 43 45 43 C48.53079954 34.14368011 48.54743319 25.25040739 48.6875 15.875 C48.72074036 14.33070142 48.75523601 12.78642933 48.79101562 11.2421875 C48.87514192 7.4949861 48.94230856 3.7477126 49 0 C52.96 0 56.92 0 61 0 C61.1162134 10.25787499 61.20487679 20.51559154 61.25906086 30.77399254 C61.28507599 35.53820543 61.32032496 40.30196558 61.37719727 45.06591797 C61.43180724 49.6695458 61.46148124 54.2727401 61.47438622 58.87666702 C61.48357437 60.6268559 61.50151622 62.37702295 61.52865028 64.1270256 C61.70602268 76.04839981 60.98177293 84.621959 52.6875 93.875 C45.27796197 100.74949481 36.93482856 102.63215891 27.02734375 102.41796875 C21.08611695 102.0239731 15.68745065 99.63652755 11 96 C9.98046875 94.03515625 9.98046875 94.03515625 10 92 C11.29296875 90.04296875 11.29296875 90.04296875 13.1875 88.1875 C14.10595703 87.24970703 14.10595703 87.24970703 15.04296875 86.29296875 C17 85 17 85 18.98828125 85.17578125 C21 86 21 86 22.91796875 87.0390625 C27.51608474 89.16126988 33.27483492 88.71047134 38.09765625 87.453125 C42.67365684 85.32101044 45.06386667 81.71108224 47.1328125 77.21484375 C48.91113405 70.62223728 48.35314548 63.7646979 48 57 C46.948125 57.639375 45.89625 58.27875 44.8125 58.9375 C38.05206161 62.78846867 30.13449968 62.97250556 22.56640625 61.5390625 C12.62068959 58.60878203 5.92384545 52.00564196 1 43 C-0.25644789 38.42733618 -0.12778761 33.90109211 -0.09765625 29.19921875 C-0.0962413 28.36284378 -0.09482635 27.52646881 -0.09336853 26.66474915 C-0.08779184 24.005629 -0.07524365 21.3465945 -0.0625 18.6875 C-0.05748199 16.87955851 -0.05291961 15.0716157 -0.04882812 13.26367188 C-0.03783004 8.84241516 -0.0205815 4.42122207 0 0 Z " fill="#031730" transform="translate(158,199)"/>
<path d="M0 0 C4.29 0 8.58 0 13 0 C13 7.92 13 15.84 13 24 C19.27 24 25.54 24 32 24 C32 28.29 32 32.58 32 37 C25.73 37 19.46 37 13 37 C13.06037489 40.50174343 13.14756629 43.99943925 13.25 47.5 C13.26417969 48.48226562 13.27835938 49.46453125 13.29296875 50.4765625 C13.49972647 56.67929422 14.22437098 61.90338529 18 67 C19.485 67.99 19.485 67.99 21 69 C21 69.66 21 70.32 21 71 C21.62648438 71.13277344 22.25296875 71.26554687 22.8984375 71.40234375 C23.71570313 71.57894531 24.53296875 71.75554687 25.375 71.9375 C26.59316406 72.19853516 26.59316406 72.19853516 27.8359375 72.46484375 C30 73 30 73 32 74 C32 77.96 32 81.92 32 86 C23.13039146 85.76962056 17.47621297 83.72866855 10 79 C10 78.34 10 77.68 10 77 C9.34 77 8.68 77 8 77 C0.25372472 67.66474518 -0.43576911 58.65457203 -0.29296875 46.77734375 C-0.2873616 45.42257664 -0.2830968 44.06780337 -0.28010559 42.71302795 C-0.26874466 39.17675474 -0.23935521 35.64086127 -0.20599365 32.10473633 C-0.1751019 28.48458999 -0.16155978 24.86438126 -0.14648438 21.24414062 C-0.11447516 14.16259177 -0.06178092 7.08136091 0 0 Z " fill="#031730" transform="translate(0,175)"/>
<path d="M0 0 C4.62 0 9.24 0 14 0 C19.83756023 10.91839969 25.5168675 21.89927126 31 33 C31.72703125 31.42025391 31.72703125 31.42025391 32.46875 29.80859375 C35.95789558 22.28081701 39.52669786 14.81927469 43.4375 7.5 C43.77910156 6.8598999 44.12070313 6.2197998 44.47265625 5.56030273 C46.86051855 1.13948145 46.86051855 1.13948145 48 0 C50.35313555 -0.07271741 52.70833668 -0.08370868 55.0625 -0.0625 C56.35285156 -0.05347656 57.64320313 -0.04445312 58.97265625 -0.03515625 C59.97167969 -0.02355469 60.97070312 -0.01195312 62 0 C60.56577758 4.70830594 58.61491176 9.00814499 56.375 13.375 C55.65346379 14.7980848 54.93211489 16.22126458 54.2109375 17.64453125 C53.84323242 18.36721191 53.47552734 19.08989258 53.09667969 19.83447266 C52.04595068 21.90926479 51.00834005 23.98994726 49.9765625 26.07421875 C46.3522624 33.39158955 42.61585542 40.62959341 38.73632812 47.81494141 C36.24719613 52.45639628 34.04305243 57.14775048 32 62 C29 61 29 61 27.5382843 58.69802856 C27.02976425 57.67893402 26.5212442 56.65983948 25.99731445 55.60986328 C25.12675163 53.88269577 25.12675163 53.88269577 24.23860168 52.12063599 C23.61310417 50.85405436 22.98800699 49.58727497 22.36328125 48.3203125 C21.71808236 47.02820423 21.07217322 45.73645038 20.42558289 44.44503784 C19.07195453 41.73612629 17.72522189 39.02393208 16.38354492 36.30908203 C14.66265049 32.82763184 12.92773282 29.35340995 11.1879549 25.88136482 C9.85273792 23.2139993 8.52361394 20.54363608 7.19646263 17.8722496 C6.55887846 16.59004497 5.91972455 15.30861967 5.27898598 14.02798843 C4.38485755 12.23793569 3.49946937 10.44352522 2.61450195 8.64892578 C2.10836868 7.62824005 1.60223541 6.60755432 1.08076477 5.55593872 C0 3 0 3 0 0 Z " fill="#031730" transform="translate(93,199)"/>
<path d="M0 0 C4.24882648 0.32186962 7.32899379 1.46282108 10.984375 3.58984375 C11.91137207 4.12230713 12.83836914 4.65477051 13.79345703 5.20336914 C15.2569458 6.06176392 15.2569458 6.06176392 16.75 6.9375 C18.80424167 8.12316859 20.85893502 9.30805494 22.9140625 10.4921875 C23.93532227 11.08354492 24.95658203 11.67490234 26.00878906 12.28417969 C31.07006381 15.18743131 36.19321117 17.97926903 41.32714844 20.75170898 C45.19678608 22.87357561 48.63205389 25.11038086 52 28 C51.34 29.32 50.68 30.64 50 32 C45.8970361 32.30446022 43.79997057 31.60867646 40.375 29.375 C36.96267364 27.22353324 33.55214889 25.16269556 30 23.25 C24.74793294 20.41555111 19.52784476 17.52626489 14.3125 14.625 C13.49716797 14.17157227 12.68183594 13.71814453 11.84179688 13.25097656 C9.894335 12.16766976 7.94706244 11.08402452 6 10 C6 11.32 6 12.64 6 14 C6.83402344 14.23847656 7.66804688 14.47695313 8.52734375 14.72265625 C12.55046124 16.20247562 15.93416147 18.18480035 19.5625 20.4375 C20.20896484 20.83259766 20.85542969 21.22769531 21.52148438 21.63476562 C22.77501837 22.40116841 24.02719986 23.16978901 25.27783203 23.94091797 C27.50767358 25.31220414 29.75227864 26.65826998 32 28 C31.505 30.475 31.505 30.475 31 33 C27.41705209 34.2757466 26.15206366 34.06969584 22.625 32.453125 C21.40786671 31.73342879 20.19963931 30.9984929 19 30.25 C18.39671875 29.8890625 17.7934375 29.528125 17.171875 29.15625 C15.44005522 28.11715813 13.7197626 27.0589279 12 26 C10.3341157 24.9986972 8.66778046 23.99814133 7 23 C6.95489639 25.37897003 6.95489639 25.37897003 8 28 C10.2308475 29.67849824 12.47405906 30.75999263 15 32 C15 33.65 15 35.3 15 37 C9.25 38.125 9.25 38.125 7 37 C6.95101562 38.20398437 6.90203125 39.40796875 6.8515625 40.6484375 C6.77653657 42.22398198 6.70098867 43.79950166 6.625 45.375 C6.57859375 46.56609375 6.57859375 46.56609375 6.53125 47.78125 C6.2265625 53.7734375 6.2265625 53.7734375 4 56 C-0.55555556 55.44444444 -0.55555556 55.44444444 -2 54 C-2.10382589 52.38419992 -2.13852243 50.76389376 -2.14526367 49.14477539 C-2.15164352 48.1102272 -2.15802338 47.07567902 -2.16459656 46.00978088 C-2.16570938 44.88377975 -2.1668222 43.75777863 -2.16796875 42.59765625 C-2.17296135 40.87560219 -2.17296135 40.87560219 -2.17805481 39.11875916 C-2.18312901 36.68505251 -2.18546298 34.25133888 -2.18530273 31.81762695 C-2.18748854 28.08207808 -2.20563746 24.34682465 -2.22460938 20.61132812 C-2.22754325 18.25260518 -2.22952808 15.89388083 -2.23046875 13.53515625 C-2.23765427 12.41117935 -2.24483978 11.28720245 -2.25224304 10.12916565 C-2.24916641 9.0914653 -2.24608978 8.05376495 -2.24291992 6.98461914 C-2.24434494 6.06830215 -2.24576996 5.15198517 -2.24723816 4.207901 C-2 2 -2 2 0 0 Z " fill="#08B0D4" transform="translate(69,8)"/>
<path d="M0 0 C4.29 0 8.58 0 13 0 C13 1.65 13 3.3 13 5 C14.11375 4.360625 15.2275 3.72125 16.375 3.0625 C21.22627096 0.60208838 25.60622381 0.29965423 31 0 C31 4.29 31 8.58 31 13 C29.47375 13.350625 27.9475 13.70125 26.375 14.0625 C20.93274168 15.67587871 17.9598203 18.1943877 15 23 C13.75526468 26.73420597 13.76790215 30.27365238 13.68359375 34.16796875 C13.66281265 34.96278152 13.64203156 35.7575943 13.62062073 36.57649231 C13.55527913 39.11340763 13.49631192 41.65042573 13.4375 44.1875 C13.39430014 45.90821372 13.35068537 47.62891708 13.30664062 49.34960938 C13.19961352 53.56630113 13.09830276 57.7830962 13 62 C8.71 62 4.42 62 0 62 C0 41.54 0 21.08 0 0 Z " fill="#031730" transform="translate(39,199)"/>
<path d="M0 0 C3.70390021 2.02666238 5.65363011 3.48044516 8 7 C8 7.99 8 8.98 8 10 C8.66 10 9.32 10 10 10 C10.0928125 8.88625 10.0928125 8.88625 10.1875 7.75 C11.25080939 4.15110668 12.95222467 3.08140754 16 1 C19.10953379 -0.5547669 21.56266761 -0.28644437 25 0 C28.70390021 2.02666238 30.65363011 3.48044516 33 7 C33.22705078 9.91088867 33.22705078 9.91088867 33.1953125 13.41796875 C33.18886719 14.67158203 33.18242187 15.92519531 33.17578125 17.21679688 C33.15902344 18.52712891 33.14226562 19.83746094 33.125 21.1875 C33.11496639 22.52277987 33.1058412 23.85806689 33.09765625 25.19335938 C33.07405292 28.46242015 33.04112594 31.73112028 33 35 C31.02 35 29.04 35 27 35 C26.99589111 34.25838623 26.99178223 33.51677246 26.98754883 32.75268555 C26.95468159 29.3968092 26.88404475 26.04276512 26.8125 22.6875 C26.80669922 21.52025391 26.80089844 20.35300781 26.79492188 19.15039062 C26.76591797 18.03212891 26.73691406 16.91386719 26.70703125 15.76171875 C26.6913208 14.73006592 26.67561035 13.69841309 26.65942383 12.63549805 C26.23314402 9.78637271 26.23314402 9.78637271 23.6003418 8.12036133 C21.11047578 6.7829127 21.11047578 6.7829127 18.6875 7.3125 C18.130625 7.539375 17.57375 7.76625 17 8 C16.65151821 12.10232212 16.65151821 12.10232212 18.125 15.8125 C20.66676215 17.42228269 23.0398108 17.67109009 26 18 C25.42655063 20.86724686 25.1385485 21.8614515 23 24 C19.04841529 24.34361606 16.39464446 24.08901197 13 22 C13 21.34 13 20.68 13 20 C12.34 20 11.68 20 11 20 C10.67 19.01 10.34 18.02 10 17 C9.67 19.31 9.34 21.62 9 24 C6.43685501 24.08132187 3.87631582 24.14064175 1.3125 24.1875 C0.59126953 24.21263672 -0.12996094 24.23777344 -0.87304688 24.26367188 C-5.48503222 24.32684976 -8.3771365 23.90481848 -12 21 C-14.768691 18.08590728 -15.43134422 16.0575992 -15.4375 12.0625 C-15.32823692 8.52966049 -15.07495173 7.12848868 -13.25 4 C-8.9036735 0.13659867 -5.8964993 -0.60998269 0 0 Z M-6.125 6.5625 C-8.29299449 7.93342669 -8.29299449 7.93342669 -8.875 10.9375 C-9.30787112 14.17537932 -9.30787112 14.17537932 -7 17 C-4.80545319 17.57993699 -4.80545319 17.57993699 -2.375 17.6875 C-1.55773437 17.75324219 -0.74046875 17.81898438 0.1015625 17.88671875 C0.72804687 17.92410156 1.35453125 17.96148437 2 18 C2.50398407 12.73672544 2.50398407 12.73672544 0.6875 8.0625 C-1.73028405 6.54019152 -3.31210989 5.81791144 -6.125 6.5625 Z " fill="#031730" transform="translate(136,154)"/>
<path d="M0 0 C3.96 0 7.92 0 12 0 C12 20.46 12 40.92 12 62 C8.04 62 4.08 62 0 62 C0 41.54 0 21.08 0 0 Z " fill="#031730" transform="translate(76,199)"/>
<path d="M0 0 C3 0.125 3 0.125 4 1.125 C4.515625 3.35546875 4.515625 3.35546875 4 6.125 C1.84510199 8.28070088 -0.68000983 9.81749608 -3.25 11.4375 C-4.3471936 12.15860962 -4.3471936 12.15860962 -5.46655273 12.89428711 C-6.94881887 13.86695842 -8.43571238 14.83261614 -9.92724609 15.79101562 C-12.66429562 17.55252783 -15.36230515 19.37013219 -18.0625 21.1875 C-20.040969 22.50105143 -22.02019041 23.81347001 -24 25.125 C-26.66787784 26.89401559 -29.33420547 28.66534701 -32 30.4375 C-32.63558838 30.85845947 -33.27117676 31.27941895 -33.92602539 31.71313477 C-36.43522085 33.38134168 -38.89292133 35.03813898 -41.234375 36.9375 C-43 38.125 -43 38.125 -46.25 37.8125 C-47.1575 37.585625 -48.065 37.35875 -49 37.125 C-49.3828125 34.94921875 -49.3828125 34.94921875 -49 32.125 C-46.97939604 30.12538154 -45.15600112 28.57634972 -42.875 26.9375 C-42.02035156 26.28104492 -42.02035156 26.28104492 -41.1484375 25.61132812 C-37.58580886 22.95959885 -34.33881814 21.30531679 -30 20.125 C-30 19.465 -30 18.805 -30 18.125 C-27.734375 16.43359375 -27.734375 16.43359375 -24.75 14.5625 C-23.77546875 13.94246094 -22.8009375 13.32242188 -21.796875 12.68359375 C-19.43180391 11.36562816 -17.63809243 10.58352559 -15 10.125 C-15 9.465 -15 8.805 -15 8.125 C-13.23596271 6.86663402 -11.41220501 5.6911735 -9.5625 4.5625 C-2.29077223 0.09544884 -2.29077223 0.09544884 0 0 Z " fill="#1904D9" transform="translate(55,84.875)"/>
<path d="M0 0 C5.0174112 0.6271764 8.68905858 3.16855914 12.5 6.4375 C12.5 7.0975 12.5 7.7575 12.5 8.4375 C13.38300781 8.69144531 14.26601562 8.94539063 15.17578125 9.20703125 C18.57336181 10.46465508 20.82941469 11.9241446 23.6875 14.125 C27.43614864 16.94157975 31.20864359 19.58124093 35.1875 22.0625 C36.95967436 23.18538634 38.73057284 24.31028963 40.5 25.4375 C41.3146875 25.95183594 42.129375 26.46617188 42.96875 26.99609375 C45.00744209 28.37795371 46.81600111 29.6402911 48.5 31.4375 C49 34.8125 49 34.8125 48.5 37.4375 C45.59360578 38.31961614 44.12039914 38.74995557 41.3515625 37.35546875 C40.61679688 36.78441406 39.88203125 36.21335938 39.125 35.625 C34.66690064 32.29152691 30.13807737 29.13734885 25.5 26.0625 C24.84080566 25.62188232 24.18161133 25.18126465 23.50244141 24.72729492 C20.08847305 22.43537814 20.08847305 22.43537814 16.5 20.4375 C16.5 19.7775 16.5 19.1175 16.5 18.4375 C15.62730469 18.19 14.75460938 17.9425 13.85546875 17.6875 C10.30006883 16.3630204 7.82653466 14.72429896 4.8125 12.4375 C3.88050781 11.73625 2.94851562 11.035 1.98828125 10.3125 C1.16714844 9.69375 0.34601563 9.075 -0.5 8.4375 C-1.49 7.7775 -2.48 7.1175 -3.5 6.4375 C-3.75 3.875 -3.75 3.875 -3.5 1.4375 C-2.5 0.4375 -2.5 0.4375 0 0 Z " fill="#FEC800" transform="translate(86.5,84.5625)"/>
<path d="M0 0 C4.44077881 2.305789 6.87555709 4.49097832 9 9 C9.20952713 11.69591571 9.28744431 14.13450509 9.1875 16.8125 C9.16719727 17.85180664 9.16719727 17.85180664 9.14648438 18.91210938 C9.11138845 20.60841265 9.05758943 22.30431136 9 24 C6.43685501 24.08132187 3.87631582 24.14064175 1.3125 24.1875 C0.59126953 24.21263672 -0.12996094 24.23777344 -0.87304688 24.26367188 C-5.47900772 24.32676723 -8.34369533 23.84455046 -12 21 C-15.18815714 17.04228769 -15.36324232 13.99458188 -15 9 C-14.5 6.5625 -14.5 6.5625 -14 5 C-13.34 5 -12.68 5 -12 5 C-11.67 4.01 -11.34 3.02 -11 2 C-7.53724772 -0.53047282 -4.15779977 -0.43011722 0 0 Z M-4 6 C-6.69433317 7.87197454 -6.69433317 7.87197454 -9 10 C-8.78192101 14.19603223 -8.78192101 14.19603223 -6.375 17.375 C-3.2052173 18.20915334 -0.26096908 18.12542189 3 18 C3.46596146 12.95098258 3.46596146 12.95098258 1.1875 8.625 C-0.99221829 6.82933128 -0.99221829 6.82933128 -4 6 Z " fill="#031730" transform="translate(210,154)"/>
<path d="M0 0 C1.98 0 3.96 0 6 0 C6.07347656 1.12148437 6.07347656 1.12148437 6.1484375 2.265625 C6.22320312 3.25046875 6.29796875 4.2353125 6.375 5.25 C6.44460937 6.22453125 6.51421875 7.1990625 6.5859375 8.203125 C6.99329145 10.95468562 7.40202644 12.72919547 9 15 C12.56206661 15.81870185 12.56206661 15.81870185 16 16 C17.10514766 12.68455701 17.32107631 9.79589889 17.5625 6.3125 C17.64628906 5.13300781 17.73007813 3.95351562 17.81640625 2.73828125 C17.90728516 1.38283203 17.90728516 1.38283203 18 0 C19.98 0 21.96 0 24 0 C24.10883596 2.37625177 24.18766696 4.74743976 24.25 7.125 C24.30027344 8.12273437 24.30027344 8.12273437 24.3515625 9.140625 C24.4523095 14.27872191 23.19606166 17.04069973 20 21 C16.5321973 23.72470212 12.2250859 23.45021407 8 23 C5.5 22 5.5 22 4 21 C4 20.34 4 19.68 4 19 C3.01 18.67 2.02 18.34 1 18 C-0.50524531 14.45622246 -0.09752721 10.53293864 -0.0625 6.75 C-0.05347656 5.48671875 -0.04445312 4.2234375 -0.03515625 2.921875 C-0.02355469 1.95765625 -0.01195312 0.9934375 0 0 Z " fill="#031730" transform="translate(170,155)"/>
<path d="M0 0 C2.56773314 2.94813804 2.88688468 6.15657561 2.6875 9.9375 C1.11319236 13.55840756 -0.00132926 14.73005284 -3.3125 16.9375 C-7.15724217 17.2647121 -10.22199049 17.38859375 -13.3125 14.9375 C-15.50103596 11.14403768 -16.5247931 9.04142412 -15.6875 4.6875 C-12.17432627 -2.33884746 -7.06766971 -3.24730771 0 0 Z " fill="#FF0036" transform="translate(77.3125,71.0625)"/>
<path d="M0 0 C3.96 0 7.92 0 12 0 C12 3.63 12 7.26 12 11 C8.04 11 4.08 11 0 11 C0 7.37 0 3.74 0 0 Z " fill="#03172F" transform="translate(76,184)"/>
<path d="M0 0 C5.29441695 -0.50423019 7.81413519 0.81076967 12 4 C11.67 5.65 11.34 7.3 11 9 C8.875 9.75 8.875 9.75 6 10 C0.50623624 7.14746882 0.50623624 7.14746882 -0.9375 3.875 C-1 2 -1 2 0 0 Z " fill="#08B1D5" transform="translate(85,44)"/>
<path d="M0 0 C2.5 0.125 2.5 0.125 3.5 1.125 C3.54080783 3.12458364 3.54254356 5.12545254 3.5 7.125 C1.52 7.455 -0.46 7.785 -2.5 8.125 C-2.88063221 5.7989143 -3.21269945 3.46444736 -3.5 1.125 C-2.5 0.125 -2.5 0.125 0 0 Z " fill="#08B2D5" transform="translate(105.5,38.875)"/>
</svg>
